<svg width="575" height="384" viewBox="0 0 575 384" fill="none" xmlns="http://www.w3.org/2000/svg">
<!-- <rect width="575" height="384" fill="#E5E5E5"/> -->
<g id="Frame 1">
<!-- <rect width="575" height="384" fill="white"/> -->
<g id="black-triangles">
<path id="Polygon 3" d="M426.5 137.412C428.5 138.566 428.5 141.453 426.5 142.608L360.5 180.713C358.5 181.868 356 180.424 356 178.115V101.905C356 99.5952 358.5 98.1519 360.5 99.3066L426.5 137.412Z" fill="#779EE9" fill-opacity="0.64"/>
<path id="Polygon 4" d="M275.5 137.402C277.5 138.557 277.5 141.443 275.5 142.598L209.5 180.703C207.5 181.858 205 180.415 205 178.105V101.895C205 99.5855 207.5 98.1421 209.5 99.2968L275.5 137.402Z" fill="#779EE9" fill-opacity="0.81"/>
</g>
<path id="Polygon 5" d="M332.5 137.402C334.5 138.557 334.5 141.443 332.5 142.598L266.5 180.703C264.5 181.858 262 180.415 262 178.105V101.895C262 99.5855 264.5 98.1421 266.5 99.2968L332.5 137.402Z" fill="#2A4986" fill-opacity="0.81"/>
</g>
</svg>
